<svg xmlns="http://www.w3.org/2000/svg" width="720" height="400" font-family="'SF Mono', 'Menlo', 'Monaco', monospace">
  <!-- terminal window -->
  <rect width="720" height="400" rx="10" fill="#1e1e1e"/>

  <!-- title bar -->
  <rect width="720" height="36" rx="10" fill="#333"/>
  <rect y="26" width="720" height="10" fill="#333"/>
  <circle cx="20" cy="18" r="6" fill="#ff5f57"/>
  <circle cx="40" cy="18" r="6" fill="#febc2e"/>
  <circle cx="60" cy="18" r="6" fill="#28c840"/>
  <text x="360" y="22" text-anchor="middle" fill="#999" font-size="13">tmux</text>

  <!-- pane borders -->
  <line x1="360" y1="36" x2="360" y2="370" stroke="#555" stroke-width="1"/>
  <line x1="0" y1="203" x2="720" y2="203" stroke="#555" stroke-width="1"/>

  <!-- pane 1: top-left (Claude Code) -->
  <text x="12" y="58" fill="#6c9ef8" font-size="12">❯ claude</text>
  <text x="12" y="76" fill="#888" font-size="11">Claude Code session 1</text>
  <text x="12" y="94" fill="#666" font-size="11">██████████████████████</text>
  <text x="12" y="112" fill="#666" font-size="11">████████████████</text>
  <text x="12" y="130" fill="#666" font-size="11">█████████████████████████</text>
  <text x="12" y="148" fill="#666" font-size="11">███████████████</text>
  <text x="12" y="166" fill="#666" font-size="11">██████████████████████</text>
  <text x="12" y="184" fill="#666" font-size="11">████████████</text>

  <!-- pane 2: top-right (Claude Code) -->
  <text x="372" y="58" fill="#6c9ef8" font-size="12">❯ claude</text>
  <text x="372" y="76" fill="#888" font-size="11">Claude Code session 2</text>
  <text x="372" y="94" fill="#666" font-size="11">████████████████████</text>
  <text x="372" y="112" fill="#666" font-size="11">██████████████████████████</text>
  <text x="372" y="130" fill="#666" font-size="11">███████████████</text>
  <text x="372" y="148" fill="#666" font-size="11">█████████████████████</text>
  <text x="372" y="166" fill="#666" font-size="11">██████████████████</text>
  <text x="372" y="184" fill="#666" font-size="11">██████████████████████</text>

  <!-- pane 3: bottom-left (Claude Code) -->
  <text x="12" y="225" fill="#6c9ef8" font-size="12">❯ claude</text>
  <text x="12" y="243" fill="#888" font-size="11">Claude Code session 3</text>
  <text x="12" y="261" fill="#666" font-size="11">█████████████████████████</text>
  <text x="12" y="279" fill="#666" font-size="11">██████████████████</text>
  <text x="12" y="297" fill="#666" font-size="11">████████████████████</text>
  <text x="12" y="315" fill="#666" font-size="11">██████████████</text>
  <text x="12" y="333" fill="#666" font-size="11">█████████████████████</text>
  <text x="12" y="351" fill="#666" font-size="11">██████████████████████████</text>

  <!-- pane 4: bottom-right (Claude Code) -->
  <text x="372" y="225" fill="#6c9ef8" font-size="12">❯ claude</text>
  <text x="372" y="243" fill="#888" font-size="11">Claude Code session 4</text>
  <text x="372" y="261" fill="#666" font-size="11">██████████████████████</text>
  <text x="372" y="279" fill="#666" font-size="11">████████████████████████</text>
  <text x="372" y="297" fill="#666" font-size="11">███████████████████</text>
  <text x="372" y="315" fill="#666" font-size="11">██████████████████████████</text>
  <text x="372" y="333" fill="#666" font-size="11">████████████████</text>
  <text x="372" y="351" fill="#666" font-size="11">█████████████████████</text>

  <!-- tmux status bar - yellow notification -->
  <rect y="370" width="720" height="30" rx="0" fill="#e5c07b"/>
  <text x="12" y="390" fill="#1e1e1e" font-size="13" font-weight="bold">tmux-guard: compacted at 76% (389MB)</text>
</svg>
